<svg id="visual" viewBox="0 0 900 600" width="900" height="600" xmlns="http://www.w3.org/2000/svg" xmlns:xlink="http://www.w3.org/1999/xlink" version="1.1"><g stroke-width="1" stroke-linejoin="bevel"><path d="M476 320L458 336.9L481 357.7Z" fill="#8f1a1a" stroke="#8f1a1a"></path><path d="M481 357.7L506 333.9L476 320Z" fill="#6e0000" stroke="#6e0000"></path><path d="M531 337L526 321.9L506 333.9Z" fill="#79090b" stroke="#79090b"></path><path d="M506 333.9L497 282L476 320Z" fill="#430000" stroke="#430000"></path><path d="M481 357.7L531 337L506 333.9Z" fill="#430000" stroke="#430000"></path><path d="M526 321.9L497 282L506 333.9Z" fill="#000000" stroke="#000000"></path><path d="M476 320L474 277.1L458 336.9Z" fill="#a62929" stroke="#a62929"></path><path d="M497 282L474 277.1L476 320Z" fill="#8f1a1a" stroke="#8f1a1a"></path><path d="M396 356.7L438 391.7L458 336.9Z" fill="#4c0000" stroke="#4c0000"></path><path d="M458 336.9L438 391.7L481 357.7Z" fill="#570000" stroke="#570000"></path><path d="M481 357.7L516 428.6L531 337Z" fill="#4c0000" stroke="#4c0000"></path><path d="M366 334L396 356.7L458 336.9Z" fill="#620000" stroke="#620000"></path><path d="M596 387.7L563 321L531 337Z" fill="#6e0000" stroke="#6e0000"></path><path d="M531 337L563 321L526 321.9Z" fill="#a62929" stroke="#a62929"></path><path d="M526 321.9L524 237.3L497 282Z" fill="#430000" stroke="#430000"></path><path d="M396 356.7L389 363.9L438 391.7Z" fill="#6e0000" stroke="#6e0000"></path><path d="M474 437.6L516 428.6L481 357.7Z" fill="#9b2221" stroke="#9b2221"></path><path d="M431 429.6L474 437.6L438 391.7Z" fill="#8f1a1a" stroke="#8f1a1a"></path><path d="M438 391.7L474 437.6L481 357.7Z" fill="#6e0000" stroke="#6e0000"></path><path d="M389 363.9L431 429.6L438 391.7Z" fill="#620000" stroke="#620000"></path><path d="M431 429.6L471 445.4L474 437.6Z" fill="#4c0000" stroke="#4c0000"></path><path d="M474 437.6L471 445.4L516 428.6Z" fill="#570000" stroke="#570000"></path><path d="M524 237.3L505 233.1L497 282Z" fill="#000000" stroke="#000000"></path><path d="M497 282L505 233.1L474 277.1Z" fill="#4c0000" stroke="#4c0000"></path><path d="M398 248.3L366 334L458 336.9Z" fill="#9b2221" stroke="#9b2221"></path><path d="M396 356.7L366 334L389 363.9Z" fill="#4c0000" stroke="#4c0000"></path><path d="M398 248.3L458 336.9L474 277.1Z" fill="#8f1a1a" stroke="#8f1a1a"></path><path d="M389 363.9L354 395.6L431 429.6Z" fill="#430000" stroke="#430000"></path><path d="M563 321L524 237.3L526 321.9Z" fill="#4c0000" stroke="#4c0000"></path><path d="M514 478.4L536 439.4L516 428.6Z" fill="#570000" stroke="#570000"></path><path d="M516 428.6L573 410.7L531 337Z" fill="#6e0000" stroke="#6e0000"></path><path d="M536 439.4L573 410.7L516 428.6Z" fill="#8f1a1a" stroke="#8f1a1a"></path><path d="M434 220.1L398 248.3L474 277.1Z" fill="#a62929" stroke="#a62929"></path><path d="M366 334L359 371.7L389 363.9Z" fill="#841213" stroke="#841213"></path><path d="M486 208.4L434 220.1L474 277.1Z" fill="#a62929" stroke="#a62929"></path><path d="M573 410.7L596 387.7L531 337Z" fill="#430000" stroke="#430000"></path><path d="M596 264.1L542 221.1L524 237.3Z" fill="#4c0000" stroke="#4c0000"></path><path d="M351 279L347 328L366 334Z" fill="#4c0000" stroke="#4c0000"></path><path d="M366 334L347 328L359 371.7Z" fill="#000000" stroke="#000000"></path><path d="M542 221.1L486 208.4L505 233.1Z" fill="#8f1a1a" stroke="#8f1a1a"></path><path d="M505 233.1L486 208.4L474 277.1Z" fill="#79090b" stroke="#79090b"></path><path d="M596 264.1L524 237.3L563 321Z" fill="#430000" stroke="#430000"></path><path d="M524 237.3L542 221.1L505 233.1Z" fill="#8f1a1a" stroke="#8f1a1a"></path><path d="M434 220.1L411 221.3L398 248.3Z" fill="#79090b" stroke="#79090b"></path><path d="M398 248.3L351 279L366 334Z" fill="#4c0000" stroke="#4c0000"></path><path d="M440 175.3L411 221.3L434 220.1Z" fill="#79090b" stroke="#79090b"></path><path d="M300 351.7L354 395.6L359 371.7Z" fill="#620000" stroke="#620000"></path><path d="M359 371.7L354 395.6L389 363.9Z" fill="#430000" stroke="#430000"></path><path d="M596 387.7L614 343.9L563 321Z" fill="#4c0000" stroke="#4c0000"></path><path d="M355 225.1L351 279L398 248.3Z" fill="#620000" stroke="#620000"></path><path d="M612 285.1L596 264.1L563 321Z" fill="#000000" stroke="#000000"></path><path d="M471 510.3L514 478.4L471 445.4Z" fill="#620000" stroke="#620000"></path><path d="M471 445.4L514 478.4L516 428.6Z" fill="#a62929" stroke="#a62929"></path><path d="M536 439.4L562 461.4L573 410.7Z" fill="#8f1a1a" stroke="#8f1a1a"></path><path d="M573 410.7L602 428.6L596 387.7Z" fill="#8f1a1a" stroke="#8f1a1a"></path><path d="M403 476.4L471 445.4L431 429.6Z" fill="#570000" stroke="#570000"></path><path d="M614 343.9L612 285.1L563 321Z" fill="#4c0000" stroke="#4c0000"></path><path d="M354 395.6L379 448.6L431 429.6Z" fill="#79090b" stroke="#79090b"></path><path d="M514 478.4L562 461.4L536 439.4Z" fill="#841213" stroke="#841213"></path><path d="M351 279L325 333.9L347 328Z" fill="#79090b" stroke="#79090b"></path><path d="M347 328L325 333.9L359 371.7Z" fill="#000000" stroke="#000000"></path><path d="M562 461.4L602 428.6L573 410.7Z" fill="#841213" stroke="#841213"></path><path d="M596 387.7L633 388.7L614 343.9Z" fill="#4c0000" stroke="#4c0000"></path><path d="M542 221.1L480 184.3L486 208.4Z" fill="#000000" stroke="#000000"></path><path d="M486 208.4L480 184.3L434 220.1Z" fill="#4c0000" stroke="#4c0000"></path><path d="M379 448.6L403 476.4L431 429.6Z" fill="#8f1a1a" stroke="#8f1a1a"></path><path d="M652 340.9L629 304L614 343.9Z" fill="#6e0000" stroke="#6e0000"></path><path d="M614 343.9L629 304L612 285.1Z" fill="#000000" stroke="#000000"></path><path d="M647 227.1L614 216.3L596 264.1Z" fill="#6e0000" stroke="#6e0000"></path><path d="M602 428.6L633 388.7L596 387.7Z" fill="#430000" stroke="#430000"></path><path d="M372 183.4L355 225.1L411 221.3Z" fill="#841213" stroke="#841213"></path><path d="M411 221.3L355 225.1L398 248.3Z" fill="#570000" stroke="#570000"></path><path d="M294 315L300 351.7L325 333.9Z" fill="#6e0000" stroke="#6e0000"></path><path d="M480 184.3L440 175.3L434 220.1Z" fill="#430000" stroke="#430000"></path><path d="M403 476.4L471 510.3L471 445.4Z" fill="#8f1a1a" stroke="#8f1a1a"></path><path d="M567 524.1L596 488.3L562 461.4Z" fill="#8f1a1a" stroke="#8f1a1a"></path><path d="M652 376.9L652 340.9L614 343.9Z" fill="#6e0000" stroke="#6e0000"></path><path d="M294 315L325 333.9L351 279Z" fill="#a62929" stroke="#a62929"></path><path d="M325 333.9L300 351.7L359 371.7Z" fill="#79090b" stroke="#79090b"></path><path d="M354 395.6L314 446.4L379 448.6Z" fill="#6e0000" stroke="#6e0000"></path><path d="M633 388.7L652 376.9L614 343.9Z" fill="#6e0000" stroke="#6e0000"></path><path d="M658 410.7L652 376.9L633 388.7Z" fill="#430000" stroke="#430000"></path><path d="M355 225.1L317 256.1L351 279Z" fill="#430000" stroke="#430000"></path><path d="M596 264.1L610 209.3L542 221.1Z" fill="#8f1a1a" stroke="#8f1a1a"></path><path d="M542 221.1L569 161.4L480 184.3Z" fill="#4c0000" stroke="#4c0000"></path><path d="M647 227.1L596 264.1L612 285.1Z" fill="#620000" stroke="#620000"></path><path d="M665 264L612 285.1L629 304Z" fill="#4c0000" stroke="#4c0000"></path><path d="M317 256.1L294 315L351 279Z" fill="#4c0000" stroke="#4c0000"></path><path d="M507 97.6L457 155.6L480 184.3Z" fill="#620000" stroke="#620000"></path><path d="M480 184.3L457 155.6L440 175.3Z" fill="#620000" stroke="#620000"></path><path d="M440 175.3L372 183.4L411 221.3Z" fill="#6e0000" stroke="#6e0000"></path><path d="M614 216.3L610 209.3L596 264.1Z" fill="#841213" stroke="#841213"></path><path d="M290 347.9L306 412.6L300 351.7Z" fill="#6e0000" stroke="#6e0000"></path><path d="M300 351.7L306 412.6L354 395.6Z" fill="#4c0000" stroke="#4c0000"></path><path d="M356 501.4L390 510.3L403 476.4Z" fill="#4c0000" stroke="#4c0000"></path><path d="M390 510.3L433 520.1L403 476.4Z" fill="#430000" stroke="#430000"></path><path d="M403 476.4L433 520.1L471 510.3Z" fill="#000000" stroke="#000000"></path><path d="M294 315L290 347.9L300 351.7Z" fill="#430000" stroke="#430000"></path><path d="M436 139.4L372 183.4L440 175.3Z" fill="#620000" stroke="#620000"></path><path d="M355 225.1L312 212.3L317 256.1Z" fill="#620000" stroke="#620000"></path><path d="M567 524.1L562 461.4L514 478.4Z" fill="#4c0000" stroke="#4c0000"></path><path d="M562 461.4L596 488.3L602 428.6Z" fill="#4c0000" stroke="#4c0000"></path><path d="M642 443.6L658 410.7L633 388.7Z" fill="#570000" stroke="#570000"></path><path d="M567 524.1L514 478.4L563 530.3Z" fill="#841213" stroke="#841213"></path><path d="M356 501.4L403 476.4L379 448.6Z" fill="#620000" stroke="#620000"></path><path d="M610 209.3L579 174.4L542 221.1Z" fill="#6e0000" stroke="#6e0000"></path><path d="M642 443.6L633 388.7L602 428.6Z" fill="#620000" stroke="#620000"></path><path d="M737 283L705 267L652 340.9Z" fill="#a62929" stroke="#a62929"></path><path d="M284 447.6L314 446.4L306 412.6Z" fill="#620000" stroke="#620000"></path><path d="M306 412.6L314 446.4L354 395.6Z" fill="#4c0000" stroke="#4c0000"></path><path d="M638 452.6L642 443.6L602 428.6Z" fill="#4c0000" stroke="#4c0000"></path><path d="M596 488.3L638 452.6L602 428.6Z" fill="#430000" stroke="#430000"></path><path d="M642 443.6L655 442.4L658 410.7Z" fill="#000000" stroke="#000000"></path><path d="M558 114.7L569 161.4L600 127.6Z" fill="#430000" stroke="#430000"></path><path d="M579 174.4L569 161.4L542 221.1Z" fill="#000000" stroke="#000000"></path><path d="M314 446.4L356 501.4L379 448.6Z" fill="#000000" stroke="#000000"></path><path d="M705 267L665 264L652 340.9Z" fill="#000000" stroke="#000000"></path><path d="M652 340.9L665 264L629 304Z" fill="#6e0000" stroke="#6e0000"></path><path d="M614 216.3L652 205.4L610 209.3Z" fill="#841213" stroke="#841213"></path><path d="M653 153.4L600 127.6L579 174.4Z" fill="#9b2221" stroke="#9b2221"></path><path d="M665 264L647 227.1L612 285.1Z" fill="#000000" stroke="#000000"></path><path d="M440 99.7L436 139.4L457 155.6Z" fill="#000000" stroke="#000000"></path><path d="M457 155.6L436 139.4L440 175.3Z" fill="#000000" stroke="#000000"></path><path d="M563 530.3L514 478.4L471 510.3Z" fill="#841213" stroke="#841213"></path><path d="M659 465.4L655 442.4L638 452.6Z" fill="#6e0000" stroke="#6e0000"></path><path d="M638 452.6L655 442.4L642 443.6Z" fill="#79090b" stroke="#79090b"></path><path d="M659 465.4L638 452.6L596 488.3Z" fill="#841213" stroke="#841213"></path><path d="M262 273.1L271 310.9L294 315Z" fill="#79090b" stroke="#79090b"></path><path d="M294 315L271 310.9L290 347.9Z" fill="#4c0000" stroke="#4c0000"></path><path d="M235 390.7L284 447.6L306 412.6Z" fill="#620000" stroke="#620000"></path><path d="M262 273.1L294 315L317 256.1Z" fill="#570000" stroke="#570000"></path><path d="M361 165.6L312 212.3L372 183.4Z" fill="#841213" stroke="#841213"></path><path d="M372 183.4L312 212.3L355 225.1Z" fill="#a62929" stroke="#a62929"></path><path d="M436 139.4L361 165.6L372 183.4Z" fill="#000000" stroke="#000000"></path><path d="M705 267L667 251.3L665 264Z" fill="#841213" stroke="#841213"></path><path d="M665 264L667 251.3L647 227.1Z" fill="#000000" stroke="#000000"></path><path d="M518 582.1L563 530.3L471 510.3Z" fill="#6e0000" stroke="#6e0000"></path><path d="M666 477.3L659 465.4L596 488.3Z" fill="#430000" stroke="#430000"></path><path d="M390 510.3L426 547.3L433 520.1Z" fill="#620000" stroke="#620000"></path><path d="M433 520.1L426 547.3L471 510.3Z" fill="#8f1a1a" stroke="#8f1a1a"></path><path d="M368 528.1L426 547.3L390 510.3Z" fill="#79090b" stroke="#79090b"></path><path d="M314 446.4L342 509.3L356 501.4Z" fill="#79090b" stroke="#79090b"></path><path d="M356 501.4L360 522.3L390 510.3Z" fill="#9b2221" stroke="#9b2221"></path><path d="M342 509.3L360 522.3L356 501.4Z" fill="#79090b" stroke="#79090b"></path><path d="M352 537.1L368 528.1L360 522.3Z" fill="#570000" stroke="#570000"></path><path d="M360 522.3L368 528.1L390 510.3Z" fill="#4c0000" stroke="#4c0000"></path><path d="M685 218.3L652 205.4L647 227.1Z" fill="#570000" stroke="#570000"></path><path d="M647 227.1L652 205.4L614 216.3Z" fill="#6e0000" stroke="#6e0000"></path><path d="M235 390.7L306 412.6L290 347.9Z" fill="#841213" stroke="#841213"></path><path d="M282 509.3L314 527.1L342 509.3Z" fill="#a62929" stroke="#a62929"></path><path d="M655 442.4L716 394.6L658 410.7Z" fill="#a62929" stroke="#a62929"></path><path d="M716 394.6L652 340.9L652 376.9Z" fill="#8f1a1a" stroke="#8f1a1a"></path><path d="M666 477.3L596 488.3L618 537.3Z" fill="#570000" stroke="#570000"></path><path d="M268 208.3L262 273.1L317 256.1Z" fill="#9b2221" stroke="#9b2221"></path><path d="M207 336.9L235 390.7L290 347.9Z" fill="#9b2221" stroke="#9b2221"></path><path d="M618 537.3L596 488.3L567 524.1Z" fill="#620000" stroke="#620000"></path><path d="M754 439.6L716 394.6L655 442.4Z" fill="#570000" stroke="#570000"></path><path d="M314 527.1L352 537.1L342 509.3Z" fill="#4c0000" stroke="#4c0000"></path><path d="M342 509.3L352 537.1L360 522.3Z" fill="#570000" stroke="#570000"></path><path d="M349 600L426 600L426 547.3Z" fill="#a62929" stroke="#a62929"></path><path d="M600 127.6L569 161.4L579 174.4Z" fill="#79090b" stroke="#79090b"></path><path d="M569 161.4L558 114.7L480 184.3Z" fill="#79090b" stroke="#79090b"></path><path d="M369 117.6L339 144.4L361 165.6Z" fill="#000000" stroke="#000000"></path><path d="M361 165.6L305 158.6L312 212.3Z" fill="#570000" stroke="#570000"></path><path d="M312 212.3L268 208.3L317 256.1Z" fill="#79090b" stroke="#79090b"></path><path d="M369 117.6L361 165.6L436 139.4Z" fill="#9b2221" stroke="#9b2221"></path><path d="M305 158.6L284 198.4L312 212.3Z" fill="#000000" stroke="#000000"></path><path d="M667 251.3L685 218.3L647 227.1Z" fill="#000000" stroke="#000000"></path><path d="M716 394.6L652 376.9L658 410.7Z" fill="#000000" stroke="#000000"></path><path d="M705 267L685 218.3L667 251.3Z" fill="#570000" stroke="#570000"></path><path d="M653 153.4L579 174.4L610 209.3Z" fill="#620000" stroke="#620000"></path><path d="M461 86.7L440 99.7L457 155.6Z" fill="#430000" stroke="#430000"></path><path d="M566 570.1L618 537.3L563 530.3Z" fill="#9b2221" stroke="#9b2221"></path><path d="M563 530.3L618 537.3L567 524.1Z" fill="#8f1a1a" stroke="#8f1a1a"></path><path d="M558 114.7L507 97.6L480 184.3Z" fill="#9b2221" stroke="#9b2221"></path><path d="M653 153.4L610 209.3L652 205.4Z" fill="#9b2221" stroke="#9b2221"></path><path d="M513 51.9L487 80.7L507 97.6Z" fill="#4c0000" stroke="#4c0000"></path><path d="M754 439.6L655 442.4L659 465.4Z" fill="#620000" stroke="#620000"></path><path d="M387 88.7L369 117.6L436 139.4Z" fill="#79090b" stroke="#79090b"></path><path d="M247 178.4L268 208.3L284 198.4Z" fill="#620000" stroke="#620000"></path><path d="M284 198.4L268 208.3L312 212.3Z" fill="#9b2221" stroke="#9b2221"></path><path d="M506 600L518 582.1L447 600Z" fill="#4c0000" stroke="#4c0000"></path><path d="M447 600L518 582.1L471 510.3Z" fill="#a62929" stroke="#a62929"></path><path d="M207 336.9L271 310.9L262 273.1Z" fill="#620000" stroke="#620000"></path><path d="M207 336.9L290 347.9L271 310.9Z" fill="#a62929" stroke="#a62929"></path><path d="M282 509.3L342 509.3L314 446.4Z" fill="#8f1a1a" stroke="#8f1a1a"></path><path d="M518 582.1L566 570.1L563 530.3Z" fill="#8f1a1a" stroke="#8f1a1a"></path><path d="M282 509.3L314 446.4L284 447.6Z" fill="#430000" stroke="#430000"></path><path d="M447 600L471 510.3L426 547.3Z" fill="#000000" stroke="#000000"></path><path d="M278 146.6L305 158.6L307 96.7Z" fill="#8f1a1a" stroke="#8f1a1a"></path><path d="M339 144.4L305 158.6L361 165.6Z" fill="#000000" stroke="#000000"></path><path d="M440 99.7L387 88.7L436 139.4Z" fill="#841213" stroke="#841213"></path><path d="M461 86.7L442 90.6L440 99.7Z" fill="#9b2221" stroke="#9b2221"></path><path d="M507 97.6L461 86.7L457 155.6Z" fill="#570000" stroke="#570000"></path><path d="M701 191.4L653 153.4L652 205.4Z" fill="#000000" stroke="#000000"></path><path d="M513 51.9L507 97.6L572 58.7Z" fill="#9b2221" stroke="#9b2221"></path><path d="M507 97.6L487 80.7L461 86.7Z" fill="#620000" stroke="#620000"></path><path d="M423 72.9L440 99.7L442 90.6Z" fill="#9b2221" stroke="#9b2221"></path><path d="M231 492.4L282 509.3L284 447.6Z" fill="#430000" stroke="#430000"></path><path d="M447 600L426 547.3L426 600Z" fill="#9b2221" stroke="#9b2221"></path><path d="M518 582.1L525 600L566 570.1Z" fill="#430000" stroke="#430000"></path><path d="M426 547.3L368 528.1L349 600Z" fill="#430000" stroke="#430000"></path><path d="M213 434.6L227 423.7L199 436.6Z" fill="#79090b" stroke="#79090b"></path><path d="M235 390.7L227 423.7L284 447.6Z" fill="#79090b" stroke="#79090b"></path><path d="M506 600L525 600L518 582.1Z" fill="#8f1a1a" stroke="#8f1a1a"></path><path d="M689 559.1L666 477.3L618 537.3Z" fill="#a62929" stroke="#a62929"></path><path d="M349 600L352 537.1L300 600Z" fill="#000000" stroke="#000000"></path><path d="M349 600L368 528.1L352 537.1Z" fill="#a62929" stroke="#a62929"></path><path d="M753 356.9L737 283L652 340.9Z" fill="#9b2221" stroke="#9b2221"></path><path d="M748 224.1L701 191.4L685 218.3Z" fill="#000000" stroke="#000000"></path><path d="M685 218.3L701 191.4L652 205.4Z" fill="#4c0000" stroke="#4c0000"></path><path d="M423 72.9L442 90.6L461 86.7Z" fill="#841213" stroke="#841213"></path><path d="M423 72.9L387 88.7L440 99.7Z" fill="#841213" stroke="#841213"></path><path d="M307 96.7L305 158.6L339 144.4Z" fill="#620000" stroke="#620000"></path><path d="M748 224.1L685 218.3L705 267Z" fill="#4c0000" stroke="#4c0000"></path><path d="M191 268L207 336.9L262 273.1Z" fill="#79090b" stroke="#79090b"></path><path d="M477 7.9L423 72.9L461 86.7Z" fill="#430000" stroke="#430000"></path><path d="M653 153.4L658 133.6L600 127.6Z" fill="#9b2221" stroke="#9b2221"></path><path d="M600 127.6L603 93.6L558 114.7Z" fill="#8f1a1a" stroke="#8f1a1a"></path><path d="M693 114.7L658 133.6L653 153.4Z" fill="#620000" stroke="#620000"></path><path d="M658 133.6L603 93.6L600 127.6Z" fill="#620000" stroke="#620000"></path><path d="M487 80.7L477 7.9L461 86.7Z" fill="#79090b" stroke="#79090b"></path><path d="M758 391.7L753 356.9L716 394.6Z" fill="#6e0000" stroke="#6e0000"></path><path d="M716 394.6L753 356.9L652 340.9Z" fill="#79090b" stroke="#79090b"></path><path d="M307 96.7L339 144.4L369 117.6Z" fill="#6e0000" stroke="#6e0000"></path><path d="M305 158.6L278 146.6L284 198.4Z" fill="#a62929" stroke="#a62929"></path><path d="M268 208.3L222 227.1L262 273.1Z" fill="#9b2221" stroke="#9b2221"></path><path d="M689 559.1L705 498.4L666 477.3Z" fill="#8f1a1a" stroke="#8f1a1a"></path><path d="M666 477.3L754 439.6L659 465.4Z" fill="#6e0000" stroke="#6e0000"></path><path d="M613 600L618 537.3L566 570.1Z" fill="#8f1a1a" stroke="#8f1a1a"></path><path d="M247 178.4L222 227.1L268 208.3Z" fill="#841213" stroke="#841213"></path><path d="M278 146.6L247 178.4L284 198.4Z" fill="#9b2221" stroke="#9b2221"></path><path d="M199 436.6L227 423.7L235 390.7Z" fill="#9b2221" stroke="#9b2221"></path><path d="M221 478.4L231 492.4L284 447.6Z" fill="#6e0000" stroke="#6e0000"></path><path d="M754 439.6L758 391.7L716 394.6Z" fill="#79090b" stroke="#79090b"></path><path d="M572 58.7L507 97.6L558 114.7Z" fill="#6e0000" stroke="#6e0000"></path><path d="M221 478.4L284 447.6L227 423.7Z" fill="#000000" stroke="#000000"></path><path d="M300 600L352 537.1L314 527.1Z" fill="#841213" stroke="#841213"></path><path d="M255 542.1L314 527.1L282 509.3Z" fill="#620000" stroke="#620000"></path><path d="M213 434.6L221 478.4L227 423.7Z" fill="#8f1a1a" stroke="#8f1a1a"></path><path d="M525 600L613 600L566 570.1Z" fill="#79090b" stroke="#79090b"></path><path d="M761 240.3L748 224.1L705 267Z" fill="#841213" stroke="#841213"></path><path d="M701 191.4L693 114.7L653 153.4Z" fill="#620000" stroke="#620000"></path><path d="M757 230.1L748 224.1L761 240.3Z" fill="#a62929" stroke="#a62929"></path><path d="M795 308.9L737 283L753 356.9Z" fill="#000000" stroke="#000000"></path><path d="M144 366.7L199 436.6L235 390.7Z" fill="#8f1a1a" stroke="#8f1a1a"></path><path d="M213 434.6L199 436.6L221 478.4Z" fill="#841213" stroke="#841213"></path><path d="M222 227.1L191 268L262 273.1Z" fill="#a62929" stroke="#a62929"></path><path d="M207 336.9L144 366.7L235 390.7Z" fill="#841213" stroke="#841213"></path><path d="M205 225.3L191 268L222 227.1Z" fill="#79090b" stroke="#79090b"></path><path d="M705 498.4L754 439.6L666 477.3Z" fill="#000000" stroke="#000000"></path><path d="M201 220.3L205 225.3L222 227.1Z" fill="#620000" stroke="#620000"></path><path d="M307 73.9L307 96.7L369 117.6Z" fill="#8f1a1a" stroke="#8f1a1a"></path><path d="M210 130.6L205 144.4L247 178.4Z" fill="#570000" stroke="#570000"></path><path d="M247 178.4L201 220.3L222 227.1Z" fill="#000000" stroke="#000000"></path><path d="M291 93.7L307 96.7L307 73.9Z" fill="#79090b" stroke="#79090b"></path><path d="M369 117.6L387 88.7L307 73.9Z" fill="#570000" stroke="#570000"></path><path d="M603 93.6L572 58.7L558 114.7Z" fill="#9b2221" stroke="#9b2221"></path><path d="M637 50.7L572 58.7L603 93.6Z" fill="#8f1a1a" stroke="#8f1a1a"></path><path d="M689 559.1L724 505.3L705 498.4Z" fill="#4c0000" stroke="#4c0000"></path><path d="M705 498.4L758 470.4L754 439.6Z" fill="#841213" stroke="#841213"></path><path d="M801 372.9L773 371.7L758 391.7Z" fill="#000000" stroke="#000000"></path><path d="M758 391.7L773 371.7L753 356.9Z" fill="#620000" stroke="#620000"></path><path d="M613 600L621 600L618 537.3Z" fill="#9b2221" stroke="#9b2221"></path><path d="M205 144.4L201 220.3L247 178.4Z" fill="#841213" stroke="#841213"></path><path d="M205 225.3L201 220.3L191 268Z" fill="#4c0000" stroke="#4c0000"></path><path d="M761 240.3L705 267L737 283Z" fill="#9b2221" stroke="#9b2221"></path><path d="M730 140.6L693 114.7L701 191.4Z" fill="#6e0000" stroke="#6e0000"></path><path d="M795 308.9L761 240.3L737 283Z" fill="#4c0000" stroke="#4c0000"></path><path d="M202 538.1L255 542.1L231 492.4Z" fill="#a62929" stroke="#a62929"></path><path d="M231 492.4L255 542.1L282 509.3Z" fill="#000000" stroke="#000000"></path><path d="M621 600L647 588.1L618 537.3Z" fill="#4c0000" stroke="#4c0000"></path><path d="M168 302L175 306L191 268Z" fill="#570000" stroke="#570000"></path><path d="M191 268L175 306L207 336.9Z" fill="#841213" stroke="#841213"></path><path d="M647 588.1L689 559.1L618 537.3Z" fill="#a62929" stroke="#a62929"></path><path d="M307 73.9L387 88.7L326 34.9Z" fill="#000000" stroke="#000000"></path><path d="M307 96.7L291 93.7L278 146.6Z" fill="#430000" stroke="#430000"></path><path d="M724 505.3L758 470.4L705 498.4Z" fill="#620000" stroke="#620000"></path><path d="M807 445.6L801 372.9L758 391.7Z" fill="#8f1a1a" stroke="#8f1a1a"></path><path d="M778 466.4L758 470.4L766 534.3Z" fill="#6e0000" stroke="#6e0000"></path><path d="M151 239.1L168 302L191 268Z" fill="#4c0000" stroke="#4c0000"></path><path d="M175 306L156 334.9L207 336.9Z" fill="#8f1a1a" stroke="#8f1a1a"></path><path d="M730 140.6L701 191.4L781 189.4Z" fill="#570000" stroke="#570000"></path><path d="M658 133.6L677 78.9L603 93.6Z" fill="#79090b" stroke="#79090b"></path><path d="M389 13.9L387 88.7L423 72.9Z" fill="#8f1a1a" stroke="#8f1a1a"></path><path d="M285 600L300 600L314 527.1Z" fill="#79090b" stroke="#79090b"></path><path d="M199 436.6L201 496.4L221 478.4Z" fill="#430000" stroke="#430000"></path><path d="M221 478.4L201 496.4L231 492.4Z" fill="#000000" stroke="#000000"></path><path d="M255 542.1L285 600L314 527.1Z" fill="#841213" stroke="#841213"></path><path d="M188 514.3L201 496.4L176 503.3Z" fill="#a62929" stroke="#a62929"></path><path d="M801 372.9L795 334L773 371.7Z" fill="#841213" stroke="#841213"></path><path d="M773 371.7L795 334L753 356.9Z" fill="#9b2221" stroke="#9b2221"></path><path d="M795 334L795 308.9L753 356.9Z" fill="#430000" stroke="#430000"></path><path d="M800 231.1L781 189.4L757 230.1Z" fill="#430000" stroke="#430000"></path><path d="M168 302L156 334.9L175 306Z" fill="#9b2221" stroke="#9b2221"></path><path d="M781 189.4L748 224.1L757 230.1Z" fill="#000000" stroke="#000000"></path><path d="M781 189.4L701 191.4L748 224.1Z" fill="#79090b" stroke="#79090b"></path><path d="M258 600L285 600L255 542.1Z" fill="#430000" stroke="#430000"></path><path d="M807 445.6L758 391.7L754 439.6Z" fill="#4c0000" stroke="#4c0000"></path><path d="M795 334L829 309L795 308.9Z" fill="#841213" stroke="#841213"></path><path d="M766 534.3L758 470.4L724 505.3Z" fill="#9b2221" stroke="#9b2221"></path><path d="M758 470.4L778 466.4L754 439.6Z" fill="#620000" stroke="#620000"></path><path d="M694 92.7L677 78.9L693 114.7Z" fill="#6e0000" stroke="#6e0000"></path><path d="M693 114.7L677 78.9L658 133.6Z" fill="#430000" stroke="#430000"></path><path d="M739 104.7L694 92.7L693 114.7Z" fill="#9b2221" stroke="#9b2221"></path><path d="M677 78.9L637 50.7L603 93.6Z" fill="#000000" stroke="#000000"></path><path d="M522 0L477 7.9L513 51.9Z" fill="#430000" stroke="#430000"></path><path d="M647 588.1L679 600L689 559.1Z" fill="#570000" stroke="#570000"></path><path d="M750 555.1L757 539.1L724 505.3Z" fill="#a62929" stroke="#a62929"></path><path d="M621 600L679 600L647 588.1Z" fill="#8f1a1a" stroke="#8f1a1a"></path><path d="M573 19.9L513 51.9L572 58.7Z" fill="#841213" stroke="#841213"></path><path d="M513 51.9L477 7.9L487 80.7Z" fill="#4c0000" stroke="#4c0000"></path><path d="M326 34.9L289 65.9L307 73.9Z" fill="#430000" stroke="#430000"></path><path d="M307 73.9L289 65.9L291 93.7Z" fill="#430000" stroke="#430000"></path><path d="M210 130.6L247 178.4L278 146.6Z" fill="#620000" stroke="#620000"></path><path d="M637 50.7L573 19.9L572 58.7Z" fill="#4c0000" stroke="#4c0000"></path><path d="M140 355.9L144 366.7L156 334.9Z" fill="#8f1a1a" stroke="#8f1a1a"></path><path d="M156 334.9L144 366.7L207 336.9Z" fill="#8f1a1a" stroke="#8f1a1a"></path><path d="M246 91.7L278 146.6L291 93.7Z" fill="#6e0000" stroke="#6e0000"></path><path d="M201 220.3L151 239.1L191 268Z" fill="#79090b" stroke="#79090b"></path><path d="M119 307.9L140 355.9L156 334.9Z" fill="#6e0000" stroke="#6e0000"></path><path d="M420 0L389 13.9L423 72.9Z" fill="#a62929" stroke="#a62929"></path><path d="M119 307.9L156 334.9L168 302Z" fill="#000000" stroke="#000000"></path><path d="M176 503.3L201 496.4L160 479.4Z" fill="#79090b" stroke="#79090b"></path><path d="M201 496.4L202 538.1L231 492.4Z" fill="#8f1a1a" stroke="#8f1a1a"></path><path d="M201 496.4L199 436.6L160 479.4Z" fill="#430000" stroke="#430000"></path><path d="M828 432.6L814 364.7L801 372.9Z" fill="#000000" stroke="#000000"></path><path d="M801 372.9L814 364.7L795 334Z" fill="#8f1a1a" stroke="#8f1a1a"></path><path d="M289 65.9L246 91.7L291 93.7Z" fill="#430000" stroke="#430000"></path><path d="M246 91.7L210 130.6L278 146.6Z" fill="#570000" stroke="#570000"></path><path d="M800 231.1L757 230.1L761 240.3Z" fill="#a62929" stroke="#a62929"></path><path d="M730 140.6L739 104.7L693 114.7Z" fill="#8f1a1a" stroke="#8f1a1a"></path><path d="M800 231.1L761 240.3L795 308.9Z" fill="#8f1a1a" stroke="#8f1a1a"></path><path d="M522 0L477 0L477 7.9Z" fill="#6e0000" stroke="#6e0000"></path><path d="M477 7.9L420 0L423 72.9Z" fill="#000000" stroke="#000000"></path><path d="M188 514.3L202 538.1L201 496.4Z" fill="#4c0000" stroke="#4c0000"></path><path d="M389 13.9L326 34.9L387 88.7Z" fill="#4c0000" stroke="#4c0000"></path><path d="M221 55.9L192 109.6L246 91.7Z" fill="#79090b" stroke="#79090b"></path><path d="M829 309L800 231.1L795 308.9Z" fill="#a62929" stroke="#a62929"></path><path d="M215 566.1L258 600L255 542.1Z" fill="#620000" stroke="#620000"></path><path d="M141 229.1L201 220.3L152 160.4Z" fill="#9b2221" stroke="#9b2221"></path><path d="M141 229.1L151 239.1L201 220.3Z" fill="#9b2221" stroke="#9b2221"></path><path d="M552 0L522 0L513 51.9Z" fill="#620000" stroke="#620000"></path><path d="M191 600L215 566.1L148 584.1Z" fill="#841213" stroke="#841213"></path><path d="M141 411.7L199 436.6L144 366.7Z" fill="#79090b" stroke="#79090b"></path><path d="M100 445.4L141 411.7L79 413.7Z" fill="#430000" stroke="#430000"></path><path d="M477 0L420 0L477 7.9Z" fill="#9b2221" stroke="#9b2221"></path><path d="M389 13.9L369 0L326 34.9Z" fill="#8f1a1a" stroke="#8f1a1a"></path><path d="M750 555.1L724 505.3L689 559.1Z" fill="#620000" stroke="#620000"></path><path d="M778 466.4L807 445.6L754 439.6Z" fill="#430000" stroke="#430000"></path><path d="M146 465.6L160 479.4L199 436.6Z" fill="#a62929" stroke="#a62929"></path><path d="M202 538.1L215 566.1L255 542.1Z" fill="#9b2221" stroke="#9b2221"></path><path d="M191 600L148 584.1L167 600Z" fill="#a62929" stroke="#a62929"></path><path d="M202 538.1L188 514.3L141 542.3Z" fill="#8f1a1a" stroke="#8f1a1a"></path><path d="M825 487.3L807 445.6L778 466.4Z" fill="#8f1a1a" stroke="#8f1a1a"></path><path d="M578 0L552 0L573 19.9Z" fill="#000000" stroke="#000000"></path><path d="M573 19.9L552 0L513 51.9Z" fill="#9b2221" stroke="#9b2221"></path><path d="M741 600L750 555.1L689 559.1Z" fill="#79090b" stroke="#79090b"></path><path d="M757 539.1L766 534.3L724 505.3Z" fill="#a62929" stroke="#a62929"></path><path d="M774 573.1L766 534.3L757 539.1Z" fill="#a62929" stroke="#a62929"></path><path d="M645 0L637 6.9L649 0Z" fill="#79090b" stroke="#79090b"></path><path d="M637 6.9L578 0L573 19.9Z" fill="#620000" stroke="#620000"></path><path d="M694 92.7L727 69.9L677 78.9Z" fill="#9b2221" stroke="#9b2221"></path><path d="M788 94.6L739 104.7L730 140.6Z" fill="#570000" stroke="#570000"></path><path d="M876 363.9L829 309L814 364.7Z" fill="#8f1a1a" stroke="#8f1a1a"></path><path d="M814 364.7L829 309L795 334Z" fill="#4c0000" stroke="#4c0000"></path><path d="M827 203.3L787 169.4L781 189.4Z" fill="#6e0000" stroke="#6e0000"></path><path d="M781 189.4L787 169.4L730 140.6Z" fill="#6e0000" stroke="#6e0000"></path><path d="M827 203.3L781 189.4L800 231.1Z" fill="#a62929" stroke="#a62929"></path><path d="M152 160.4L201 220.3L205 144.4Z" fill="#620000" stroke="#620000"></path><path d="M151 239.1L119 307.9L168 302Z" fill="#79090b" stroke="#79090b"></path><path d="M637 6.9L573 19.9L637 50.7Z" fill="#000000" stroke="#000000"></path><path d="M141 411.7L146 465.6L199 436.6Z" fill="#000000" stroke="#000000"></path><path d="M160 479.4L141 542.3L176 503.3Z" fill="#430000" stroke="#430000"></path><path d="M420 0L369 0L389 13.9Z" fill="#570000" stroke="#570000"></path><path d="M221 55.9L246 91.7L289 65.9Z" fill="#8f1a1a" stroke="#8f1a1a"></path><path d="M98 250.3L119 307.9L151 239.1Z" fill="#620000" stroke="#620000"></path><path d="M79 413.7L141 411.7L144 366.7Z" fill="#841213" stroke="#841213"></path><path d="M141 411.7L100 445.4L146 465.6Z" fill="#79090b" stroke="#79090b"></path><path d="M838 484.3L828 432.6L807 445.6Z" fill="#a62929" stroke="#a62929"></path><path d="M807 445.6L828 432.6L801 372.9Z" fill="#9b2221" stroke="#9b2221"></path><path d="M305 0L289 65.9L326 34.9Z" fill="#79090b" stroke="#79090b"></path><path d="M246 91.7L192 109.6L210 130.6Z" fill="#a62929" stroke="#a62929"></path><path d="M210 130.6L192 109.6L205 144.4Z" fill="#841213" stroke="#841213"></path><path d="M728 56.9L727 69.9L788 94.6Z" fill="#620000" stroke="#620000"></path><path d="M739 104.7L727 69.9L694 92.7Z" fill="#620000" stroke="#620000"></path><path d="M637 6.9L637 50.7L649 0Z" fill="#841213" stroke="#841213"></path><path d="M146 145.4L152 160.4L205 144.4Z" fill="#a62929" stroke="#a62929"></path><path d="M141 229.1L98 250.3L151 239.1Z" fill="#570000" stroke="#570000"></path><path d="M679 600L741 600L689 559.1Z" fill="#570000" stroke="#570000"></path><path d="M750 555.1L774 573.1L757 539.1Z" fill="#000000" stroke="#000000"></path><path d="M766 534.3L825 487.3L778 466.4Z" fill="#79090b" stroke="#79090b"></path><path d="M841 226.1L827 203.3L800 231.1Z" fill="#8f1a1a" stroke="#8f1a1a"></path><path d="M788 94.6L727 69.9L739 104.7Z" fill="#000000" stroke="#000000"></path><path d="M788 94.6L730 140.6L787 169.4Z" fill="#a62929" stroke="#a62929"></path><path d="M727 69.9L728 56.9L677 78.9Z" fill="#9b2221" stroke="#9b2221"></path><path d="M741 600L774 573.1L750 555.1Z" fill="#4c0000" stroke="#4c0000"></path><path d="M774 573.1L825 487.3L766 534.3Z" fill="#9b2221" stroke="#9b2221"></path><path d="M649 0L637 50.7L699 0Z" fill="#620000" stroke="#620000"></path><path d="M637 6.9L645 0L578 0Z" fill="#8f1a1a" stroke="#8f1a1a"></path><path d="M369 0L305 0L326 34.9Z" fill="#841213" stroke="#841213"></path><path d="M699 0L637 50.7L677 78.9Z" fill="#79090b" stroke="#79090b"></path><path d="M829 309L841 226.1L800 231.1Z" fill="#6e0000" stroke="#6e0000"></path><path d="M888 231.3L841 226.1L900 295Z" fill="#000000" stroke="#000000"></path><path d="M876 363.9L814 364.7L828 432.6Z" fill="#6e0000" stroke="#6e0000"></path><path d="M259 0L221 55.9L289 65.9Z" fill="#8f1a1a" stroke="#8f1a1a"></path><path d="M192 109.6L146 145.4L205 144.4Z" fill="#570000" stroke="#570000"></path><path d="M148 95.7L146 145.4L192 109.6Z" fill="#8f1a1a" stroke="#8f1a1a"></path><path d="M95 246.1L98 250.3L141 229.1Z" fill="#a62929" stroke="#a62929"></path><path d="M900 165.6L817 161.4L827 203.3Z" fill="#430000" stroke="#430000"></path><path d="M827 203.3L817 161.4L787 169.4Z" fill="#79090b" stroke="#79090b"></path><path d="M141 542.3L188 514.3L176 503.3Z" fill="#000000" stroke="#000000"></path><path d="M215 566.1L191 600L258 600Z" fill="#4c0000" stroke="#4c0000"></path><path d="M883 583.1L838 484.3L825 487.3Z" fill="#9b2221" stroke="#9b2221"></path><path d="M825 487.3L838 484.3L807 445.6Z" fill="#430000" stroke="#430000"></path><path d="M95 246.1L141 229.1L70 233.3Z" fill="#79090b" stroke="#79090b"></path><path d="M79 413.7L144 366.7L140 355.9Z" fill="#9b2221" stroke="#9b2221"></path><path d="M76 309L140 355.9L119 307.9Z" fill="#a62929" stroke="#a62929"></path><path d="M146 465.6L141 542.3L160 479.4Z" fill="#9b2221" stroke="#9b2221"></path><path d="M110 551.3L141 542.3L146 465.6Z" fill="#841213" stroke="#841213"></path><path d="M70 233.3L141 229.1L66 160.4Z" fill="#6e0000" stroke="#6e0000"></path><path d="M98 250.3L76 309L119 307.9Z" fill="#000000" stroke="#000000"></path><path d="M820 113.7L788 94.6L787 169.4Z" fill="#6e0000" stroke="#6e0000"></path><path d="M728 56.9L699 0L677 78.9Z" fill="#8f1a1a" stroke="#8f1a1a"></path><path d="M900 404.6L876 363.9L828 432.6Z" fill="#4c0000" stroke="#4c0000"></path><path d="M305 0L263 0L289 65.9Z" fill="#570000" stroke="#570000"></path><path d="M162 60.9L148 95.7L192 109.6Z" fill="#841213" stroke="#841213"></path><path d="M57 293L76 309L98 250.3Z" fill="#8f1a1a" stroke="#8f1a1a"></path><path d="M741 600L783 600L774 573.1Z" fill="#000000" stroke="#000000"></path><path d="M774 573.1L837 600L825 487.3Z" fill="#79090b" stroke="#79090b"></path><path d="M263 0L259 0L289 65.9Z" fill="#000000" stroke="#000000"></path><path d="M58 404.7L79 413.7L52 357.9Z" fill="#000000" stroke="#000000"></path><path d="M110 551.3L148 584.1L141 542.3Z" fill="#6e0000" stroke="#6e0000"></path><path d="M148 584.1L215 566.1L202 538.1Z" fill="#8f1a1a" stroke="#8f1a1a"></path><path d="M148 584.1L202 538.1L141 542.3Z" fill="#430000" stroke="#430000"></path><path d="M803 0L699 0L728 56.9Z" fill="#8f1a1a" stroke="#8f1a1a"></path><path d="M900 363.9L885 359.7L876 363.9Z" fill="#6e0000" stroke="#6e0000"></path><path d="M876 363.9L885 359.7L829 309Z" fill="#79090b" stroke="#79090b"></path><path d="M162 60.9L192 109.6L221 55.9Z" fill="#000000" stroke="#000000"></path><path d="M146 145.4L115 128.6L152 160.4Z" fill="#4c0000" stroke="#4c0000"></path><path d="M110 551.3L146 465.6L100 445.4Z" fill="#79090b" stroke="#79090b"></path><path d="M817 161.4L820 113.7L787 169.4Z" fill="#570000" stroke="#570000"></path><path d="M788 94.6L800 39.9L728 56.9Z" fill="#6e0000" stroke="#6e0000"></path><path d="M833 90.6L820 113.7L840 91.6Z" fill="#6e0000" stroke="#6e0000"></path><path d="M900 199.3L827 203.3L841 226.1Z" fill="#79090b" stroke="#79090b"></path><path d="M900 484.3L871 462.4L838 484.3Z" fill="#620000" stroke="#620000"></path><path d="M838 484.3L871 462.4L828 432.6Z" fill="#79090b" stroke="#79090b"></path><path d="M783 600L799 600L774 573.1Z" fill="#6e0000" stroke="#6e0000"></path><path d="M58 404.7L69 421.6L79 413.7Z" fill="#8f1a1a" stroke="#8f1a1a"></path><path d="M79 413.7L69 421.6L100 445.4Z" fill="#430000" stroke="#430000"></path><path d="M148 95.7L115 128.6L146 145.4Z" fill="#841213" stroke="#841213"></path><path d="M95 246.1L57 293L98 250.3Z" fill="#620000" stroke="#620000"></path><path d="M148 51.9L162 60.9L157 0Z" fill="#8f1a1a" stroke="#8f1a1a"></path><path d="M148 95.7L118 84.7L115 128.6Z" fill="#000000" stroke="#000000"></path><path d="M66 160.4L141 229.1L152 160.4Z" fill="#6e0000" stroke="#6e0000"></path><path d="M52 357.9L79 413.7L140 355.9Z" fill="#620000" stroke="#620000"></path><path d="M70 233.3L57 293L95 246.1Z" fill="#6e0000" stroke="#6e0000"></path><path d="M900 404.6L900 363.9L876 363.9Z" fill="#000000" stroke="#000000"></path><path d="M900 295L841 226.1L829 309Z" fill="#000000" stroke="#000000"></path><path d="M35 550.3L110 551.3L100 445.4Z" fill="#79090b" stroke="#79090b"></path><path d="M52 357.9L140 355.9L76 309Z" fill="#6e0000" stroke="#6e0000"></path><path d="M69 421.6L25 442.6L100 445.4Z" fill="#620000" stroke="#620000"></path><path d="M900 295L829 309L885 359.7Z" fill="#8f1a1a" stroke="#8f1a1a"></path><path d="M900 363.9L900 295L885 359.7Z" fill="#430000" stroke="#430000"></path><path d="M57 293L52 357.9L76 309Z" fill="#620000" stroke="#620000"></path><path d="M900 411.7L900 404.6L828 432.6Z" fill="#8f1a1a" stroke="#8f1a1a"></path><path d="M871 462.4L900 411.7L828 432.6Z" fill="#620000" stroke="#620000"></path><path d="M900 445.4L900 411.7L871 462.4Z" fill="#000000" stroke="#000000"></path><path d="M840 91.6L820 113.7L900 156.4Z" fill="#6e0000" stroke="#6e0000"></path><path d="M820 113.7L833 90.6L788 94.6Z" fill="#430000" stroke="#430000"></path><path d="M900 484.3L900 445.4L871 462.4Z" fill="#4c0000" stroke="#4c0000"></path><path d="M157 0L162 60.9L221 55.9Z" fill="#620000" stroke="#620000"></path><path d="M162 60.9L148 51.9L148 95.7Z" fill="#79090b" stroke="#79090b"></path><path d="M900 156.4L820 113.7L817 161.4Z" fill="#570000" stroke="#570000"></path><path d="M833 90.6L800 39.9L788 94.6Z" fill="#430000" stroke="#430000"></path><path d="M148 51.9L118 84.7L148 95.7Z" fill="#620000" stroke="#620000"></path><path d="M115 128.6L66 160.4L152 160.4Z" fill="#4c0000" stroke="#4c0000"></path><path d="M888 231.3L900 199.3L841 226.1Z" fill="#6e0000" stroke="#6e0000"></path><path d="M900 295L900 218.1L888 231.3Z" fill="#430000" stroke="#430000"></path><path d="M831 25.9L800 39.9L833 90.6Z" fill="#8f1a1a" stroke="#8f1a1a"></path><path d="M91 600L118 595.1L110 551.3Z" fill="#570000" stroke="#570000"></path><path d="M110 551.3L118 595.1L148 584.1Z" fill="#570000" stroke="#570000"></path><path d="M148 584.1L118 595.1L167 600Z" fill="#4c0000" stroke="#4c0000"></path><path d="M98 101.6L91 123.7L115 128.6Z" fill="#430000" stroke="#430000"></path><path d="M70 233.3L18 251.3L57 293Z" fill="#841213" stroke="#841213"></path><path d="M799 600L837 600L774 573.1Z" fill="#79090b" stroke="#79090b"></path><path d="M900 218.1L900 199.3L888 231.3Z" fill="#570000" stroke="#570000"></path><path d="M40 96.6L98 101.6L56 59.9Z" fill="#620000" stroke="#620000"></path><path d="M118 84.7L98 101.6L115 128.6Z" fill="#4c0000" stroke="#4c0000"></path><path d="M900 522.1L900 484.3L838 484.3Z" fill="#79090b" stroke="#79090b"></path><path d="M52 164.4L66 160.4L40 96.6Z" fill="#a62929" stroke="#a62929"></path><path d="M91 123.7L66 160.4L115 128.6Z" fill="#570000" stroke="#570000"></path><path d="M0 380.7L58 404.7L52 357.9Z" fill="#4c0000" stroke="#4c0000"></path><path d="M900 199.3L900 165.6L827 203.3Z" fill="#79090b" stroke="#79090b"></path><path d="M815 0L803 0L800 39.9Z" fill="#a62929" stroke="#a62929"></path><path d="M40 96.6L66 160.4L91 123.7Z" fill="#6e0000" stroke="#6e0000"></path><path d="M66 160.4L52 164.4L70 233.3Z" fill="#8f1a1a" stroke="#8f1a1a"></path><path d="M900 165.6L900 156.4L817 161.4Z" fill="#841213" stroke="#841213"></path><path d="M883 583.1L900 522.1L838 484.3Z" fill="#000000" stroke="#000000"></path><path d="M0 433.6L25 442.6L58 404.7Z" fill="#000000" stroke="#000000"></path><path d="M58 404.7L25 442.6L69 421.6Z" fill="#841213" stroke="#841213"></path><path d="M0 330.9L52 357.9L57 293Z" fill="#9b2221" stroke="#9b2221"></path><path d="M35 550.3L91 600L110 551.3Z" fill="#620000" stroke="#620000"></path><path d="M118 595.1L91 600L167 600Z" fill="#9b2221" stroke="#9b2221"></path><path d="M259 0L157 0L221 55.9Z" fill="#430000" stroke="#430000"></path><path d="M148 51.9L65 43.9L118 84.7Z" fill="#430000" stroke="#430000"></path><path d="M0 147.4L0 191.3L52 164.4Z" fill="#a62929" stroke="#a62929"></path><path d="M19 223.1L18 251.3L70 233.3Z" fill="#4c0000" stroke="#4c0000"></path><path d="M831 25.9L833 90.6L840 91.6Z" fill="#620000" stroke="#620000"></path><path d="M800 39.9L803 0L728 56.9Z" fill="#4c0000" stroke="#4c0000"></path><path d="M52 164.4L19 223.1L70 233.3Z" fill="#000000" stroke="#000000"></path><path d="M888 48.7L831 25.9L840 91.6Z" fill="#6e0000" stroke="#6e0000"></path><path d="M837 600L883 583.1L825 487.3Z" fill="#430000" stroke="#430000"></path><path d="M0 448.4L18 468.4L25 442.6Z" fill="#000000" stroke="#000000"></path><path d="M25 442.6L18 468.4L100 445.4Z" fill="#430000" stroke="#430000"></path><path d="M0 290.1L57 293L0 279Z" fill="#9b2221" stroke="#9b2221"></path><path d="M0 290.1L0 330.9L57 293Z" fill="#570000" stroke="#570000"></path><path d="M0 330.9L0 380.7L52 357.9Z" fill="#570000" stroke="#570000"></path><path d="M831 25.9L815 0L800 39.9Z" fill="#a62929" stroke="#a62929"></path><path d="M0 279L57 293L18 251.3Z" fill="#79090b" stroke="#79090b"></path><path d="M19 223.1L0 279L18 251.3Z" fill="#000000" stroke="#000000"></path><path d="M0 380.7L0 433.6L58 404.7Z" fill="#570000" stroke="#570000"></path><path d="M157 0L125 0L148 51.9Z" fill="#841213" stroke="#841213"></path><path d="M52 164.4L0 191.3L19 223.1Z" fill="#841213" stroke="#841213"></path><path d="M0 433.6L0 448.4L25 442.6Z" fill="#8f1a1a" stroke="#8f1a1a"></path><path d="M18 468.4L35 550.3L100 445.4Z" fill="#a62929" stroke="#a62929"></path><path d="M0 519.1L35 550.3L18 468.4Z" fill="#570000" stroke="#570000"></path><path d="M837 600L900 600L883 583.1Z" fill="#79090b" stroke="#79090b"></path><path d="M883 583.1L900 600L900 522.1Z" fill="#570000" stroke="#570000"></path><path d="M40 96.6L91 123.7L98 101.6Z" fill="#9b2221" stroke="#9b2221"></path><path d="M19 223.1L0 191.3L0 279Z" fill="#8f1a1a" stroke="#8f1a1a"></path><path d="M56 59.9L98 101.6L118 84.7Z" fill="#000000" stroke="#000000"></path><path d="M8 561.1L50 600L35 550.3Z" fill="#a62929" stroke="#a62929"></path><path d="M35 550.3L50 600L91 600Z" fill="#841213" stroke="#841213"></path><path d="M900 156.4L900 67.7L840 91.6Z" fill="#000000" stroke="#000000"></path><path d="M831 25.9L883 0L815 0Z" fill="#570000" stroke="#570000"></path><path d="M900 67.7L888 48.7L840 91.6Z" fill="#620000" stroke="#620000"></path><path d="M65 43.9L56 59.9L118 84.7Z" fill="#841213" stroke="#841213"></path><path d="M125 0L65 43.9L148 51.9Z" fill="#9b2221" stroke="#9b2221"></path><path d="M0 448.4L0 519.1L18 468.4Z" fill="#8f1a1a" stroke="#8f1a1a"></path><path d="M900 67.7L900 52.9L888 48.7Z" fill="#841213" stroke="#841213"></path><path d="M888 48.7L883 0L831 25.9Z" fill="#841213" stroke="#841213"></path><path d="M0 519.1L0 526.3L35 550.3Z" fill="#570000" stroke="#570000"></path><path d="M23 85.7L40 96.6L56 59.9Z" fill="#4c0000" stroke="#4c0000"></path><path d="M0 107.7L0 147.4L40 96.6Z" fill="#000000" stroke="#000000"></path><path d="M40 96.6L0 147.4L52 164.4Z" fill="#430000" stroke="#430000"></path><path d="M0 526.3L8 561.1L35 550.3Z" fill="#79090b" stroke="#79090b"></path><path d="M0 73.9L23 85.7L56 59.9Z" fill="#430000" stroke="#430000"></path><path d="M900 0L883 0L888 48.7Z" fill="#430000" stroke="#430000"></path><path d="M0 89.6L0 107.7L23 85.7Z" fill="#620000" stroke="#620000"></path><path d="M23 85.7L0 107.7L40 96.6Z" fill="#570000" stroke="#570000"></path><path d="M125 0L61 0L65 43.9Z" fill="#4c0000" stroke="#4c0000"></path><path d="M0 0L0 73.9L56 59.9Z" fill="#841213" stroke="#841213"></path><path d="M61 0L60 0L65 43.9Z" fill="#000000" stroke="#000000"></path><path d="M0 73.9L0 89.6L23 85.7Z" fill="#a62929" stroke="#a62929"></path><path d="M900 52.9L900 0L888 48.7Z" fill="#8f1a1a" stroke="#8f1a1a"></path><path d="M0 526.3L0 600L8 561.1Z" fill="#430000" stroke="#430000"></path><path d="M8 561.1L0 600L50 600Z" fill="#841213" stroke="#841213"></path><path d="M0 0L56 59.9L65 43.9Z" fill="#9b2221" stroke="#9b2221"></path><path d="M60 0L0 0L65 43.9Z" fill="#620000" stroke="#620000"></path></g></svg>